
        <svg xmlns="http://www.w3.org/2000/svg" xmlns:xlink="http://www.w3.org/1999/xlink" version="1.1" width="3165.8228269929573" 
        height="2843.8614829292155" viewBox="0 0 3165.8228269929573 2843.8614829292155">
			
			<g transform="scale(8.291141349647859) translate(10, 10)">
				<defs id="SvgjsDefs11299"><linearGradient id="SvgjsLinearGradient11310"><stop id="SvgjsStop11311" stop-color="#fbb040" offset="0"></stop><stop id="SvgjsStop11312" stop-color="#f9ed32" offset="1"></stop></linearGradient><linearGradient id="SvgjsLinearGradient11313"><stop id="SvgjsStop11314" stop-color="#fbb040" offset="0"></stop><stop id="SvgjsStop11315" stop-color="#f9ed32" offset="1"></stop></linearGradient><linearGradient id="SvgjsLinearGradient11316"><stop id="SvgjsStop11317" stop-color="#fbb040" offset="0"></stop><stop id="SvgjsStop11318" stop-color="#f9ed32" offset="1"></stop></linearGradient><linearGradient id="SvgjsLinearGradient11319"><stop id="SvgjsStop11320" stop-color="#fbb040" offset="0"></stop><stop id="SvgjsStop11321" stop-color="#f9ed32" offset="1"></stop></linearGradient><linearGradient id="SvgjsLinearGradient11322"><stop id="SvgjsStop11323" stop-color="#fbb040" offset="0"></stop><stop id="SvgjsStop11324" stop-color="#f9ed32" offset="1"></stop></linearGradient></defs><g id="SvgjsG11300" featureKey="rootContainer" transform="matrix(1,0,0,1,0,0)" fill="url(#SvgjsLinearGradient11310)"><path xmlns="http://www.w3.org/2000/svg" fill-rule="evenodd" d="M5,65 L181,0 L357, 65 L181, 10 z M5,243 L181,323 L357,238 L181, 313 z"></path></g><g id="SvgjsG11301" featureKey="symbolFeature-0" transform="matrix(0.9162169391646144,0,0,0.9162169391646144,135.23037774051969,74.81116085616974)" fill="url(#SvgjsLinearGradient11313)"><path xmlns="http://www.w3.org/2000/svg" fill="url(#SvgjsLinearGradient11313)" d="M99.04,20.58c-0.01-0.06-0.01-0.12-0.03-0.18c-0.02-0.05-0.06-0.09-0.09-0.13c-0.03-0.05-0.06-0.1-0.1-0.14  s-0.09-0.07-0.141-0.1c-0.04-0.03-0.08-0.06-0.13-0.08c-0.05-0.03-0.109-0.03-0.17-0.04c-0.05-0.01-0.1-0.03-0.16-0.03l-6.21-0.04  l-0.81-1.22c0-0.01-0.01-0.01-0.01-0.02c-0.021-0.02-0.04-0.04-0.061-0.06c-0.03-0.04-0.07-0.07-0.11-0.1  c-0.02-0.02-0.039-0.05-0.069-0.07c-0.021-0.01-0.05-0.02-0.07-0.03c-0.04-0.02-0.09-0.04-0.14-0.05  c-0.03-0.01-0.07-0.03-0.101-0.04c-0.01,0-0.01,0-0.02-0.01C71.93,15.31,56.3,16.39,50.8,21c-0.44,0.37-0.8,0.75-1.09,1.15  c-0.3-0.42-0.67-0.83-1.13-1.21c-4.3-3.61-16.89-6.21-39.3-2.7c-0.01,0.01-0.01,0.01-0.02,0.01c-0.03,0.01-0.06,0.03-0.1,0.04  c-0.05,0.01-0.09,0.03-0.14,0.05C9,18.35,8.97,18.36,8.95,18.37c-0.02,0.02-0.04,0.05-0.07,0.07c-0.04,0.03-0.08,0.06-0.11,0.1  L8.71,18.6c0,0.01-0.01,0.01-0.01,0.02l-0.81,1.22l-6.2,0.04c-0.06,0-0.11,0.02-0.16,0.03c-0.06,0.01-0.12,0.01-0.17,0.04  C1.31,19.96,1.28,20,1.24,20.03c-0.06,0.03-0.11,0.06-0.16,0.1C1.05,20.16,1.03,20.21,1,20.25c-0.03,0.05-0.07,0.09-0.1,0.15  c-0.02,0.05-0.02,0.11-0.03,0.16c-0.01,0.06-0.03,0.11-0.03,0.17v61.31c0,0.06,0.02,0.1,0.03,0.15C0.88,82.25,0.88,82.3,0.9,82.35  c0.02,0.061,0.05,0.101,0.08,0.15c0.03,0.04,0.06,0.09,0.09,0.13c0.04,0.04,0.09,0.07,0.13,0.101c0.05,0.029,0.09,0.069,0.14,0.09  c0.05,0.02,0.11,0.029,0.16,0.04c0.05,0.01,0.09,0.04,0.15,0.04c10.33,0.55,19.34-0.78,26.58-1.851c6.4-0.95,11.46-1.7,13.12-0.26  c0.28,0.24,0.65,0.68,0.65,1.76c0,0.47,0.38,0.851,0.86,0.851h14.19c0.47,0,0.851-0.381,0.851-0.851c0-1.069,0.369-1.52,0.649-1.76  c1.67-1.44,6.73-0.69,13.13,0.26c7.24,1.07,16.25,2.4,26.58,1.851c0.061,0,0.101-0.03,0.15-0.04c0.05-0.011,0.109-0.021,0.16-0.04  c0.05-0.021,0.1-0.061,0.14-0.101c0.04-0.029,0.09-0.05,0.12-0.09c0.05-0.04,0.07-0.09,0.1-0.14c0.03-0.05,0.061-0.09,0.08-0.13  c0.021-0.061,0.03-0.12,0.03-0.181c0.01-0.04,0.03-0.09,0.03-0.14V20.73C99.07,20.68,99.05,20.63,99.04,20.58z M91.32,21.91l1.989,3  v48.82l-2.34-3.36L91.32,21.91z M92.59,75.7c-7.229,0.43-12.54-0.38-17.24-1.101C67.7,73.41,61.65,72.48,52.13,78.03h-1.22  c0.3-1.49,1.32-3.021,2.92-4.32c3.58-2.91,12.99-7.05,35.78-2.3L92.59,75.7z M50.56,24.63c0-0.01,0-0.01,0-0.02  c0.021-0.79,0.471-1.56,1.341-2.29c4.159-3.49,17.42-5.58,37.72-2.49L89.27,69.59c-22.979-4.66-32.739-0.28-36.52,2.79  c-0.77,0.62-1.42,1.3-1.95,2.01l-0.24-49.74C50.56,24.64,50.56,24.64,50.56,24.63z M47.48,22.25c0.89,0.75,1.35,1.54,1.37,2.36v0.05  l0.23,49.68c-0.53-0.689-1.16-1.35-1.91-1.96c-3.78-3.07-13.54-7.45-36.53-2.79l-0.36-49.76C31.68,16.57,43.69,19.08,47.48,22.25z   M10.3,71.41c22.79-4.76,32.21-0.61,35.79,2.3c1.61,1.3,2.63,2.83,2.92,4.32h-1.24c-9.51-5.55-15.56-4.62-23.21-3.431  c-4.7,0.721-10.01,1.53-17.24,1.101L10.3,71.41z M8.58,21.91l0.36,48.46L6.6,73.73V24.91L8.58,21.91z"></path></g><g id="SvgjsG11302" featureKey="sloganFeature-0" transform="matrix(1.2461537547365515,0,0,1.2461537547365515,-1.2461537547365515,208.12738540888674)" fill="url(#SvgjsLinearGradient11316)"><path d="M1.26 20 c-0.16 0 -0.26 -0.12 -0.26 -0.26 l0 -11.98 c0 -0.14 0.1 -0.26 0.26 -0.26 l4.88 0 c1.52 0 2.72 0.38 3.56 1.16 c1.24 1.12 1.66 3.24 1.06 4.8 c-0.22 0.56 -0.6 1.08 -1.08 1.46 c-0.28 0.22 -0.58 0.38 -0.88 0.54 c0.86 1.36 2.16 4.12 2.16 4.12 c0.02 0.04 0.06 0.1 0.06 0.16 c0 0.14 -0.12 0.26 -0.26 0.26 l-2.96 0 c-0.08 0 -0.18 -0.06 -0.22 -0.14 l-1.74 -3.82 c-0.62 0.04 -1.1 0.02 -1.74 0.02 l0 3.68 c0 0.14 -0.12 0.26 -0.26 0.26 l-2.58 0 z M4.1 13.280000000000001 c0 0 2.52 0.28 3.4 -0.3 c0.34 -0.22 0.54 -0.76 0.54 -1.16 c-0.02 -0.44 -0.24 -0.9 -0.6 -1.18 c-0.38 -0.32 -1.32 -0.42 -1.8 -0.42 l-1.54 0.04 l0 3.02 z M15.6195 20 l0 -11.98 c0 -0.5 0.1 -0.6 0.26 -0.6 l8.76 0 c0.14 0 0.26 0.1 0.26 0.24 l0 2.26 c0 0.14 -0.12 0.26 -0.26 0.26 l-5.92 0 l0 2.08 l3.74 0 c0.14 0 0.26 0.12 0.26 0.26 l0 2.24 c0 0.14 -0.12 0.26 -0.26 0.26 l-3.74 0 l0 2.14 l5.9 0 c0.14 0 0.26 0.12 0.26 0.26 l0 2.24 c0 0.14 -0.12 0.26 -0.26 0.26 l-8.74 0 c-0.16 0 -0.26 -0.12 -0.26 0.08 z M29.739 20 c-0.08 0 -0.16 -0.04 -0.2 -0.12 c-0.06 -0.06 -0.06 -0.16 -0.04 -0.24 l4.66 -11.98 c0.04 -0.1 0.14 -0.16 0.24 -0.16 l2.68 0 c0.1 0 0.2 0.06 0.24 0.16 l4.58 11.98 c0.02 0.08 0.02 0.16 -0.04 0.24 c-0.04 0.08 -0.12 0.12 -0.2 0.12 l-2.78 0 c-0.1 0 -0.2 -0.06 -0.24 -0.16 l-0.74 -1.84 l-4.5 0.02 l-0.74 1.82 c-0.04 0.1 -0.14 0.16 -0.24 0.16 l-2.68 0 z M34.219 15.5 l2.88 0 l-1.44 -4.24 z M46.5585 20 c-0.16 0 -0.26 -0.12 -0.26 -0.26 l0 -11.98 c0 -0.14 0.1 -0.26 0.26 -0.26 l4.54 0 c1.2 0 2.3 0.26 3.26 0.8 c0.96 0.52 1.7 1.26 2.24 2.22 c0.52 0.94 0.8 2.02 0.8 3.22 c0 1.22 -0.28 2.3 -0.82 3.24 c-0.54 0.96 -1.3 1.7 -2.28 2.22 c-0.96 0.54 -2.08 0.8 -3.3 0.8 l-4.44 0 z M49.398500000000006 17.2 l1.76 0 c0.58 0 1.12 -0.14 1.58 -0.42 c0.46 -0.3 0.84 -0.7 1.1 -1.22 s0.4 -1.12 0.4 -1.8 c0 -0.66 -0.14 -1.28 -0.42 -1.8 c-0.28 -0.54 -0.66 -0.94 -1.14 -1.24 c-0.48 -0.28 -1.04 -0.44 -1.64 -0.44 l-1.64 0 l0 6.92 z M62.238 20 c-0.14 0 -0.26 -0.12 -0.26 -0.26 l0 -11.98 c0 -0.14 0.12 -0.26 0.26 -0.26 l2.6 0 c0.14 0 0.26 0.12 0.26 0.26 l0 11.98 c0 0.14 -0.12 0.26 -0.26 0.26 l-2.6 0 z M69.93750000000001 20 c-0.14 0 -0.26 -0.12 -0.26 -0.26 l0 -11.98 c0 -0.14 0.12 -0.26 0.26 -0.26 l2.36 0 c0.08 0 0.16 0.04 0.22 0.1 l4.6 7.1 l0 -6.94 c0 -0.14 0.12 -0.26 0.26 -0.26 l2.46 0 c0.14 0 0.26 0.12 0.26 0.26 l0 11.98 c0 0.14 -0.12 0.26 -0.26 0.26 l-2.36 0 c-0.08 0 -0.16 -0.04 -0.22 -0.1 l-4.58 -7.06 l0 6.9 c0 0.14 -0.12 0.26 -0.26 0.26 l-2.48 0 z M91.057 20 c-1.18 0 -2.28 -0.28 -3.24 -0.84 c-0.98 -0.58 -1.74 -1.36 -2.3 -2.32 c-0.56 -0.98 -0.84 -2.1 -0.84 -3.3 s0.28 -2.3 0.86 -3.26 c0.56 -0.98 1.36 -1.76 2.34 -2.32 c1 -0.56 2.12 -0.84 3.34 -0.84 c0.88 0 1.74 0.16 2.6 0.5 c0.84 0.32 1.58 0.78 2.18 1.36 c0.1 0.08 0.12 0.22 0.04 0.34 l-1.46 1.92 c-0.06 0.06 -0.12 0.1 -0.2 0.12 c-0.06 0 -0.14 -0.04 -0.2 -0.08 c-0.4 -0.4 -0.86 -0.72 -1.4 -0.94 c-0.52 -0.22 -1.04 -0.34 -1.56 -0.34 c-0.62 0 -1.2 0.16 -1.7 0.46 c-0.52 0.32 -0.92 0.74 -1.22 1.28 s-0.44 1.14 -0.44 1.8 s0.14 1.28 0.44 1.82 s0.72 0.98 1.22 1.3 c0.52 0.3 1.1 0.46 1.7 0.46 c0.32 0 0.66 -0.06 1.04 -0.16 c0.32 -0.1 0.66 -0.24 0.96 -0.4 l0 -0.92 l-1.38 0 c-0.08 0 -0.14 -0.02 -0.18 -0.08 c-0.06 -0.04 -0.08 -0.1 -0.08 -0.18 l0.02 -2.24 c0 -0.14 0.12 -0.26 0.26 -0.26 l3.88 0 c0.14 0 0.26 0.12 0.26 0.26 l0 5.02 c0 0.08 -0.04 0.16 -0.12 0.22 c-0.62 0.48 -1.38 0.88 -2.26 1.16 c-0.88 0.3 -1.74 0.46 -2.56 0.46 z M108.89600000000002 20 c-0.14 0 -0.26 -0.12 -0.26 -0.26 l0 -11.98 c0 -0.14 0.12 -0.26 0.26 -0.26 l2.6 0 c0.14 0 0.26 0.12 0.26 0.26 l0 11.98 c0 0.14 -0.12 0.26 -0.26 0.26 l-2.6 0 z M121.67550000000001 20.12 c-0.96 0 -1.92 -0.18 -2.84 -0.54 c-0.92 -0.34 -1.74 -0.84 -2.42 -1.44 c-0.08 -0.08 -0.1 -0.2 -0.06 -0.3 l0.7 -2.38 c0.04 -0.08 0.1 -0.14 0.18 -0.14 c0.08 -0.02 0.16 0 0.22 0.06 c1.06 1 2.26 1.9 3.76 1.98 c0.4 0.02 0.84 0.04 1.22 -0.08 c1.18 -0.38 0.68 -1.58 -0.2 -1.94 c-0.3 -0.12 -0.72 -0.26 -1.26 -0.42 c-0.8 -0.22 -1.46 -0.46 -1.96 -0.7 c-0.54 -0.24 -1 -0.62 -1.4 -1.12 c-0.38 -0.52 -0.58 -1.2 -0.58 -2.02 c0 -0.78 0.2 -1.46 0.6 -2.04 s0.96 -1.04 1.66 -1.34 s1.52 -0.46 2.44 -0.46 c0.82 0 1.62 0.12 2.42 0.38 c0.78 0.24 1.48 0.58 2.1 0.98 c0.1 0.08 0.14 0.2 0.08 0.32 l-0.66 2.24 c-0.02 0.08 -0.08 0.12 -0.16 0.14 c-0.06 0.02 -0.14 0.02 -0.2 -0.02 c-0.9 -0.56 -1.8 -1.24 -2.86 -1.38 c-0.7 -0.1 -1.76 -0.06 -2 0.78 c-0.3 1.08 1.28 1.36 2 1.58 c0.8 0.24 1.46 0.48 1.98 0.72 c0.54 0.26 1.02 0.66 1.4 1.16 c0.4 0.52 0.6 1.22 0.6 2.06 c0 0.82 -0.22 1.52 -0.64 2.12 c-0.4 0.6 -0.98 1.04 -1.7 1.36 c-0.72 0.28 -1.52 0.44 -2.42 0.44 z M139.2545 20 c-0.08 0 -0.16 -0.04 -0.2 -0.12 c-0.06 -0.06 -0.06 -0.16 -0.04 -0.24 l4.66 -11.98 c0.04 -0.1 0.14 -0.16 0.24 -0.16 l2.68 0 c0.1 0 0.2 0.06 0.24 0.16 l4.58 11.98 c0.02 0.08 0.02 0.16 -0.04 0.24 c-0.04 0.08 -0.12 0.12 -0.2 0.12 l-2.78 0 c-0.1 0 -0.2 -0.06 -0.24 -0.16 l-0.74 -1.84 l-4.5 0.02 l-0.74 1.82 c-0.04 0.1 -0.14 0.16 -0.24 0.16 l-2.68 0 z M143.73450000000003 15.5 l2.88 0 l-1.44 -4.24 z M164.0535 20 c-0.14 0 -0.26 -0.12 -0.26 -0.26 l0 -11.98 c0 -0.14 0.12 -0.26 0.26 -0.26 l8.26 0 c0.08 0 0.14 0.02 0.18 0.08 c0.06 0.04 0.08 0.1 0.08 0.18 l-0.02 2.24 c0 0.14 -0.12 0.26 -0.26 0.26 l-5.4 0 l0 2.42 l3.4 0 c0.14 0 0.26 0.12 0.26 0.26 l0 2.26 c0 0.14 -0.12 0.26 -0.26 0.26 l-3.4 0 l0 4.28 c0 0.14 -0.1 0.26 -0.24 0.26 l-2.6 0 z M177.013 20 c-0.16 0 -0.26 -0.12 -0.26 -0.26 l0 -11.98 c0 -0.14 0.1 -0.26 0.26 -0.26 l4.88 0 c1.52 0 2.72 0.38 3.56 1.16 c1.24 1.12 1.66 3.24 1.06 4.8 c-0.22 0.56 -0.6 1.08 -1.08 1.46 c-0.28 0.22 -0.58 0.38 -0.88 0.54 c0.86 1.36 2.16 4.12 2.16 4.12 c0.02 0.04 0.06 0.1 0.06 0.16 c0 0.14 -0.12 0.26 -0.26 0.26 l-2.96 0 c-0.08 0 -0.18 -0.06 -0.22 -0.14 l-1.74 -3.82 c-0.62 0.04 -1.1 0.02 -1.74 0.02 l0 3.68 c0 0.14 -0.12 0.26 -0.26 0.26 l-2.58 0 z M179.853 13.280000000000001 c0 0 2.52 0.28 3.4 -0.3 c0.34 -0.22 0.54 -0.76 0.54 -1.16 c-0.02 -0.44 -0.24 -0.9 -0.6 -1.18 c-0.38 -0.32 -1.32 -0.42 -1.8 -0.42 l-1.54 0.04 l0 3.02 z M191.6325 20 c-0.14 0 -0.26 -0.12 -0.26 -0.26 l0 -11.98 c0 -0.14 0.12 -0.26 0.26 -0.26 l2.6 0 c0.14 0 0.26 0.12 0.26 0.26 l0 11.98 c0 0.14 -0.12 0.26 -0.26 0.26 l-2.6 0 z M199.072 20 l0 -11.98 c0 -0.5 0.1 -0.6 0.26 -0.6 l8.76 0 c0.14 0 0.26 0.1 0.26 0.24 l0 2.26 c0 0.14 -0.12 0.26 -0.26 0.26 l-5.92 0 l0 2.08 l3.74 0 c0.14 0 0.26 0.12 0.26 0.26 l0 2.24 c0 0.14 -0.12 0.26 -0.26 0.26 l-3.74 0 l0 2.14 l5.9 0 c0.14 0 0.26 0.12 0.26 0.26 l0 2.24 c0 0.14 -0.12 0.26 -0.26 0.26 l-8.74 0 c-0.16 0 -0.26 -0.12 -0.26 0.08 z M213.1915 20 c-0.14 0 -0.26 -0.12 -0.26 -0.26 l0 -11.98 c0 -0.14 0.12 -0.26 0.26 -0.26 l2.36 0 c0.08 0 0.16 0.04 0.22 0.1 l4.6 7.1 l0 -6.94 c0 -0.14 0.12 -0.26 0.26 -0.26 l2.46 0 c0.14 0 0.26 0.12 0.26 0.26 l0 11.98 c0 0.14 -0.12 0.26 -0.26 0.26 l-2.36 0 c-0.08 0 -0.16 -0.04 -0.22 -0.1 l-4.58 -7.06 l0 6.9 c0 0.14 -0.12 0.26 -0.26 0.26 l-2.48 0 z M228.191 20 c-0.16 0 -0.26 -0.12 -0.26 -0.26 l0 -11.98 c0 -0.14 0.1 -0.26 0.26 -0.26 l4.54 0 c1.2 0 2.3 0.26 3.26 0.8 c0.96 0.52 1.7 1.26 2.24 2.22 c0.52 0.94 0.8 2.02 0.8 3.22 c0 1.22 -0.28 2.3 -0.82 3.24 c-0.54 0.96 -1.3 1.7 -2.28 2.22 c-0.96 0.54 -2.08 0.8 -3.3 0.8 l-4.44 0 z M231.031 17.2 l1.76 0 c0.58 0 1.12 -0.14 1.58 -0.42 c0.46 -0.3 0.84 -0.7 1.1 -1.22 s0.4 -1.12 0.4 -1.8 c0 -0.66 -0.14 -1.28 -0.42 -1.8 c-0.28 -0.54 -0.66 -0.94 -1.14 -1.24 c-0.48 -0.28 -1.04 -0.44 -1.64 -0.44 l-1.64 0 l0 6.92 z M248.9505 20.12 c-0.96 0 -1.92 -0.18 -2.84 -0.54 c-0.92 -0.34 -1.74 -0.84 -2.42 -1.44 c-0.08 -0.08 -0.1 -0.2 -0.06 -0.3 l0.7 -2.38 c0.04 -0.08 0.1 -0.14 0.18 -0.14 c0.08 -0.02 0.16 0 0.22 0.06 c1.06 1 2.26 1.9 3.76 1.98 c0.4 0.02 0.84 0.04 1.22 -0.08 c1.18 -0.38 0.68 -1.58 -0.2 -1.94 c-0.3 -0.12 -0.72 -0.26 -1.26 -0.42 c-0.8 -0.22 -1.46 -0.46 -1.96 -0.7 c-0.54 -0.24 -1 -0.62 -1.4 -1.12 c-0.38 -0.52 -0.58 -1.2 -0.58 -2.02 c0 -0.78 0.2 -1.46 0.6 -2.04 s0.96 -1.04 1.66 -1.34 s1.52 -0.46 2.44 -0.46 c0.82 0 1.62 0.12 2.42 0.38 c0.78 0.24 1.48 0.58 2.1 0.98 c0.1 0.08 0.14 0.2 0.08 0.32 l-0.66 2.24 c-0.02 0.08 -0.08 0.12 -0.16 0.14 c-0.06 0.02 -0.14 0.02 -0.2 -0.02 c-0.9 -0.56 -1.8 -1.24 -2.86 -1.38 c-0.7 -0.1 -1.76 -0.06 -2 0.78 c-0.3 1.08 1.28 1.36 2 1.58 c0.8 0.24 1.46 0.48 1.98 0.72 c0.54 0.26 1.02 0.66 1.4 1.16 c0.4 0.52 0.6 1.22 0.6 2.06 c0 0.82 -0.22 1.52 -0.64 2.12 c-0.4 0.6 -0.98 1.04 -1.7 1.36 c-0.72 0.28 -1.52 0.44 -2.42 0.44 z M258.55 20 c-0.14 0 -0.26 -0.12 -0.26 -0.26 l0 -11.98 c0 -0.14 0.12 -0.26 0.26 -0.26 l2.6 0 c0.14 0 0.26 0.12 0.26 0.26 l0 4.92 l4.52 0 l0 -4.92 c0 -0.14 0.12 -0.26 0.26 -0.26 l2.6 0 c0.14 0 0.26 0.12 0.26 0.26 l0 11.98 c0 0.14 -0.12 0.26 -0.26 0.26 l-2.6 0 c-0.14 0 -0.26 -0.12 -0.26 -0.26 l0 -4.3 l-4.52 0 l0 4.3 c0 0.14 -0.12 0.26 -0.26 0.26 l-2.6 0 z M273.8895 20 c-0.14 0 -0.26 -0.12 -0.26 -0.26 l0 -11.98 c0 -0.14 0.12 -0.26 0.26 -0.26 l2.6 0 c0.14 0 0.26 0.12 0.26 0.26 l0 11.98 c0 0.14 -0.12 0.26 -0.26 0.26 l-2.6 0 z M281.569 20 c-0.14 0 -0.24 -0.12 -0.24 -0.26 l0 -11.98 c0 -0.14 0.1 -0.26 0.24 -0.26 l4.9 0 c1.52 0 2.72 0.38 3.56 1.16 c1.24 1.12 1.66 3.24 1.06 4.8 c-0.22 0.56 -0.6 1.08 -1.08 1.46 c-1.62 1.26 -3.64 1.14 -5.58 1.14 l0 3.68 c0 0.14 -0.12 0.26 -0.26 0.26 l-2.6 0 z M284.42900000000003 13.280000000000001 c0 0 2.52 0.28 3.4 -0.3 c0.34 -0.22 0.54 -0.76 0.54 -1.16 c-0.02 -0.44 -0.24 -0.9 -0.6 -1.18 c-0.38 -0.32 -1.32 -0.42 -1.8 -0.42 l-1.54 0.04 l0 3.02 z"></path></g><g id="SvgjsG11303" featureKey="nameLeftFeature-0" transform="matrix(2.346539623969197,0,0,2.346539623969197,35.410593784538804,159.45049661278873)" fill="url(#SvgjsLinearGradient11319)"><path d="M1.1035 17.3242 l1.5137 0 l0 -9.4434 l-1.5137 0 l0 -2.7051 l7.2168 0.019531 q1.005859375 0 1.840820313 0.3564453125 t1.4404 0.9668 t0.94238 1.4258 t0.33691 1.7334 q0 1.07421875 -0.3759765625 1.77734375 t-1.0693 1.1328 q0.732421875 0.46875 1.157226563 1.157226563 t0.4248 1.6748 q0 1.005859375 -0.3466796875 1.845703125 t-0.94727 1.4502 t-1.4209 0.94727 t-1.7676 0.33691 l-7.4316 0 l0 -2.6758 z M5.8594 13.876999999999999 l0 3.4473 l2.4609 0 q0.283203125 0 0.5322265625 -0.146484375 t0.42969 -0.38574 t0.28809 -0.55664 t0.10742 -0.65918 q0 -0.361328125 -0.107421875 -0.6689453125 t-0.29297 -0.53711 t-0.43457 -0.36133 t-0.52246 -0.13184 l-2.4609 0 z M5.8594 7.881 l0 3.3203 l2.3242 0 q0.2734375 0 0.517578125 -0.13671875 t0.4248 -0.36621 t0.28809 -0.51758 t0.10742 -0.60059 q0 -0.302734375 -0.107421875 -0.60546875 t-0.28809 -0.54688 t-0.4248 -0.39551 t-0.51758 -0.15137 l-2.3242 0 z M21.33785625 20.26367 q-1.005859375 0 -1.923828125 -0.2734375 t-1.7139 -0.77148 t-1.4453 -1.1963 t-1.1084 -1.5527 t-0.71289 -1.8311 t-0.25391 -2.041 t0.25391 -2.0459 t0.71289 -1.8359 t1.1084 -1.5527 t1.4453 -1.1963 t1.7139 -0.77148 t1.9238 -0.27344 t1.9287 0.27344 t1.7188 0.77148 t1.4453 1.1963 t1.1133 1.5527 t0.71777 1.8359 t0.25391 2.0459 q0 1.0546875 -0.25390625 2.036132813 t-0.71777 1.8359 t-1.1133 1.5527 t-1.4453 1.1963 t-1.7188 0.77148 t-1.9287 0.27344 z M21.33785625 17.1973 q0.849609375 0 1.557617188 -0.3662109375 t1.2158 -0.99609 t0.78613 -1.4648 t0.27832 -1.7725 q0 -0.947265625 -0.283203125 -1.787109375 t-0.7959 -1.4697 t-1.2158 -0.99609 t-1.543 -0.36621 t-1.543 0.36621 t-1.2109 0.99609 t-0.7959 1.4697 t-0.28809 1.7871 q0 0.9375 0.2880859375 1.772460938 t0.7959 1.4648 t1.2109 0.99609 t1.543 0.36621 z M37.15816875 20.26367 q-1.005859375 0 -1.923828125 -0.2734375 t-1.7139 -0.77148 t-1.4453 -1.1963 t-1.1084 -1.5527 t-0.71289 -1.8311 t-0.25391 -2.041 t0.25391 -2.0459 t0.71289 -1.8359 t1.1084 -1.5527 t1.4453 -1.1963 t1.7139 -0.77148 t1.9238 -0.27344 t1.9287 0.27344 t1.7188 0.77148 t1.4453 1.1963 t1.1133 1.5527 t0.71777 1.8359 t0.25391 2.0459 q0 1.0546875 -0.25390625 2.036132813 t-0.71777 1.8359 t-1.1133 1.5527 t-1.4453 1.1963 t-1.7188 0.77148 t-1.9287 0.27344 z M37.15816875 17.1973 q0.849609375 0 1.557617188 -0.3662109375 t1.2158 -0.99609 t0.78613 -1.4648 t0.27832 -1.7725 q0 -0.947265625 -0.283203125 -1.787109375 t-0.7959 -1.4697 t-1.2158 -0.99609 t-1.543 -0.36621 t-1.543 0.36621 t-1.2109 0.99609 t-0.7959 1.4697 t-0.28809 1.7871 q0 0.9375 0.2880859375 1.772460938 t0.7959 1.4648 t1.2109 0.99609 t1.543 0.36621 z M46.27928125 5.195 l6.3379 0 l0 2.6855 l-1.5625 0 l0 4.3066 l4.7363 -4.1309 l0 -2.8613 l5.0488 0 l0 2.8809 l-1.1035 0 l-4.9316 4.2383 l4.7266 4.7852 l1.2012 0 l0 2.9004 l-4.9121 0 l0 -2.9004 l-4.7656 -4.7656 l0 4.9902 l1.5625 0 l0 2.6758 l-6.3379 0 l0 -2.6758 l1.5332 0 l0 -9.4434 l-1.5332 0 l0 -2.6855 z"></path></g><g id="SvgjsG11304" featureKey="nameRightFeature-0" transform="matrix(2.3465229953899693,0,0,2.3465229953899693,181.16652519715493,159.31271427891204)" fill="url(#SvgjsLinearGradient11322)"><path d="M8.6719 7.93 q-0.3125 -0.4296875 -0.6884765625 -0.6591796875 t-0.8252 -0.35156 t-0.89844 -0.12207 q-0.7421875 0 -1.298828125 0.1708984375 t-0.92285 0.46387 t-0.55176 0.68359 t-0.18555 0.82031 q0 0.64453125 0.2294921875 1.040039063 t0.58105 0.63477 t0.77637 0.37598 t0.81543 0.27344 l1.9727 0.64453 q0.888671875 0.283203125 1.567382813 0.64453125 t1.1377 0.85449 t0.69824 1.1377 t0.23926 1.4941 q0 0.91796875 -0.3759765625 1.69921875 t-1.0498 1.3574 t-1.6064 0.90332 t-2.0459 0.32715 q-1.142578125 0 -1.953125 -0.2587890625 t-1.3623 -0.69336 t-0.88379 -0.99121 t-0.51758 -1.1426 l-0.74219 0 l0 -1.6797 l2.4609 0 q0 1.083984375 0.2294921875 1.533203125 t0.63965 0.74707 t0.97656 0.44922 t1.25 0.15137 q0.6640625 0 1.196289063 -0.15625 t0.9082 -0.4541 t0.57617 -0.72266 t0.2002 -0.96191 q0 -0.595703125 -0.2490234375 -1.010742188 t-0.63965 -0.70801 t-0.85449 -0.47852 t-0.89355 -0.32227 l-2.1387 -0.60547 q-0.703125 -0.21484375 -1.284179688 -0.546875 t-0.99609 -0.81055 t-0.63965 -1.1182 t-0.22461 -1.4795 q0 -0.849609375 0.33203125 -1.591796875 t0.97656 -1.2988 t1.5771 -0.87402 t2.1338 -0.31738 q0.791015625 0 1.459960938 0.185546875 t1.2109 0.52246 t0.95703 0.81055 t0.69824 1.04 l0.73242 0 l0 1.6797 l-2.3926 0 q0 -0.859375 -0.3125 -1.2890625 z M12.73437625 15.1562 l0 -1.6797 l5.3809 0 l0 1.6797 l-5.3809 0 z M20.410171875 5.195 l10.605 0 l0 4.1895 l-2.002 0 l0 -2.5 l-5.2832 0 l0 4.7559 l5.0879 0 l0 1.6406 l-5.0879 0 l0 5.0391 l1.4844 0 l0 1.6797 l-4.8047 0 l0 -1.6797 l1.4063 0 l0 -11.436 l-1.4063 0 l0 -1.6895 z M40.56615625 18.3203 l1.2305 0 l-1.1719 -3.3594 l-5.6934 0 l-1.1426 3.3594 l1.5234 0 l0 1.6797 l-4.8047 0 l0 -1.6797 l1.2891 0 l4.6094 -13.125 l2.8809 0 l4.5996 13.125 l1.4844 0 l0 1.6797 l-4.8047 0 l0 -1.6797 z M35.48825625 13.3398 l4.5703 0 l-2.3047 -6.6211 z M56.02575 5.195 l4.8047 0 l0 1.6895 l-1.2598 0 l0 13.115 l-2.5 0 l-6.8848 -12.275 l0 10.596 l1.5234 0 l0 1.6797 l-4.8047 0 l0 -1.6797 l1.3672 0 l0 -11.436 l-1.4063 0 l0 -1.709 l3.9844 0 l6.7578 12.158 l0.078125 -0.46875 l0 -9.9805 l-1.6602 0 l0 -1.6895 z"></path></g>
			</g>
		</svg>
	